<svg width="512" height="512" viewBox="0 0 512 512" fill="none" xmlns="http://www.w3.org/2000/svg">
<g clip-path="url(#clip0_5_4937)">
<path d="M464.789 129.335C464.19 130.345 463.358 131.157 462.361 131.768C462.087 131.936 461.658 131.994 461.341 131.923C460.715 131.781 460.117 131.513 459.508 131.298L459.521 130.992C460.347 130.601 461.179 130.223 461.995 129.812C462.375 129.62 462.753 129.401 463.08 129.131C463.735 128.592 463.695 127.894 462.961 127.433C462.611 127.213 462.184 127.029 461.778 126.994C459.898 126.832 458.017 126.785 456.163 127.255C455.013 127.546 453.836 127.755 452.715 128.132C451.725 128.466 450.788 128.965 449.846 129.427C449.59 129.553 449.376 129.79 449.181 130.011C448.677 130.581 448.626 131.16 449.178 131.679C449.796 132.26 450.479 132.808 451.22 133.215C452.545 133.943 453.953 134.52 455.293 135.225C456.369 135.791 457.419 136.414 458.436 137.08C460.089 138.163 459.766 139.931 458.625 140.934C457.879 141.59 456.125 142.425 454.655 142.616L454.655 142.617L454.628 142.62C454.59 142.624 454.553 142.629 454.515 142.633L451.981 142.92C452 142.925 452.019 142.93 452.038 142.936C447.137 143.395 442.245 143.512 437.372 142.712L437.236 142.417C437.89 141.839 438.503 141.204 439.213 140.704C439.663 140.388 440.225 140.614 440.737 140.782C441.888 141.16 443.062 141.472 444.203 141.875C445.963 142.497 447.807 142.605 449.631 142.828C450.083 142.883 450.547 142.828 451.005 142.826C451.04 142.826 451.074 142.826 451.109 142.826L454.443 142.339C454.851 142.199 455.238 142.063 455.612 141.901C456.091 141.694 456.563 141.44 456.981 141.13C457.816 140.509 457.94 139.402 457.255 138.604C456.871 138.157 456.442 137.702 455.939 137.414C454.657 136.677 453.317 136.039 452.008 135.348C450.609 134.609 449.209 133.886 448.049 132.761C447.207 131.944 447.23 130.659 447.999 129.839C448.871 128.91 449.991 128.46 451.138 128.039C453.602 127.135 456.18 126.737 458.763 126.401C460.4 126.189 462.046 126.132 463.67 126.659C464.976 127.083 465.488 128.159 464.789 129.335ZM451.665 121.765C451.173 121.558 450.858 121.472 450.594 121.306C448.434 119.94 446.109 118.91 443.696 118.119C441.887 117.526 440.012 117.129 438.153 116.701C436.516 116.324 434.864 116.013 433.213 115.7C432.631 115.59 432.025 115.603 431.445 115.485C429.898 115.171 428.356 114.824 426.815 114.477C425.757 114.239 424.697 114.006 423.65 113.725C420.376 112.846 417.205 111.752 414.811 109.169C413.501 107.756 412.785 106.111 412.486 104.169C412.251 102.649 412.502 101.21 412.622 99.7453C412.682 99.0124 412.968 98.2639 413.297 97.5941C414.08 96.0016 414.943 94.4532 415.957 92.9845C417.267 91.0869 418.518 89.1556 419.28 86.9375C419.727 85.6368 420.244 84.3707 420.524 83.0109C420.768 81.8292 421.238 80.6947 421.489 79.5138C421.795 78.0687 422.023 76.6028 422.199 75.1356C422.403 73.4333 422.588 71.7226 422.65 70.0108C422.749 67.3059 422.81 64.6029 422.465 61.8957C422.244 60.168 422.257 58.4043 422.258 56.6569C422.259 55.6406 423.27 54.8042 424.274 54.718C425.611 54.6032 426.652 55.2067 427.554 56.0542C428.466 56.9124 429.338 57.8287 430.128 58.8005C432.168 61.3114 434.254 63.7952 436.131 66.426C437.891 68.8927 439.47 71.4959 441.008 74.1103C442.194 76.1258 443.242 78.2276 444.258 80.3357C445.058 81.9939 445.732 83.7135 446.43 85.4188C446.954 86.6977 447.453 87.9879 447.915 89.2904C448.244 90.2203 448.497 91.1776 448.777 92.1248C449.084 93.1653 449.399 94.2041 449.682 95.2512C449.922 96.1398 450.161 97.0319 450.332 97.9356C450.638 99.5525 450.895 101.179 451.167 102.802C451.33 103.777 451.563 104.749 451.625 105.731C451.896 110.046 452.365 114.359 451.83 118.689C451.754 119.31 451.787 119.943 451.76 120.571C451.746 120.892 451.71 121.211 451.665 121.765ZM451.288 123.94C450.904 124.203 450.761 124.37 450.59 124.407C449.115 124.726 447.973 125.616 446.857 126.551C444.479 128.545 442.139 130.586 439.718 132.527C437.268 134.491 434.621 136.184 431.804 137.572C430.215 138.355 428.555 139.011 426.884 139.603C425.463 140.107 423.979 140.432 422.527 140.851C421.959 141.015 421.401 141.212 420.843 141.406C419.916 141.728 418.994 142.062 418.067 142.383C417.882 142.447 417.686 142.503 417.493 142.51C416.794 142.537 416.109 142.59 415.519 143.032C415.466 143.072 415.341 143.015 415.171 142.992C415.484 142.354 416.075 142.098 416.558 141.758C417.175 141.323 417.861 140.986 418.508 140.592C420.066 139.644 421.008 138.36 421.116 136.441C421.236 134.314 420.539 132.498 419.415 130.776C419.127 130.336 418.866 129.877 418.603 129.421C417.94 128.272 417.892 126.994 418.084 125.761C418.355 124.019 419.163 122.551 420.731 121.554C422.009 120.741 423.229 119.828 424.676 119.334C425.753 118.967 426.765 118.396 427.956 118.357C428.468 118.34 428.966 118.04 429.483 117.985C431.756 117.744 434.03 117.633 436.274 118.24C436.496 118.3 436.727 118.347 436.956 118.356C438.493 118.413 439.909 118.97 441.364 119.378C443.147 119.879 444.851 120.574 446.505 121.384C447.953 122.092 449.352 122.898 450.773 123.661C450.89 123.724 451.007 123.788 451.288 123.94ZM464.149 88.2616C464.652 89.4148 465.133 90.3498 465.474 91.3329C466.099 93.134 466.694 94.9492 467.201 96.7861C467.56 98.0832 467.749 99.4268 468.02 100.748C468.153 101.392 468.369 102.027 468.428 102.677C468.597 104.527 467.937 106.174 467.04 107.739C465.963 109.617 464.551 111.245 463.024 112.752C460.18 115.56 457.267 118.297 454.379 121.06C454.171 121.259 453.931 121.425 453.601 121.69C453.521 121.37 453.415 121.165 453.428 120.969C453.526 119.554 453.643 118.141 453.765 116.728C453.837 115.907 453.911 115.085 454.019 114.268C454.128 113.454 454.281 112.646 454.413 111.835C454.477 111.446 454.528 111.054 454.603 110.667C454.732 109.991 454.873 109.317 455.013 108.644C455.033 108.548 455.088 108.459 455.108 108.363C455.353 107.212 455.555 106.05 455.851 104.912C456.097 103.966 456.442 103.045 456.763 102.12C457.011 101.408 457.287 100.706 457.556 100.001C458.481 97.5692 459.51 95.1882 460.943 93.0002C461.827 91.6515 462.681 90.2839 463.558 88.9306C463.675 88.75 463.844 88.6033 464.149 88.2616ZM472.323 93.9129C472.065 93.4319 471.84 93.0104 471.614 92.5895C470.554 90.6181 469.5 88.6432 468.427 86.6786C468.175 86.2171 467.874 85.7796 467.567 85.3517C467.278 84.9508 467.335 84.617 467.691 84.3126C468.642 83.4982 469.534 82.5932 470.568 81.9007C471.821 81.0617 473.17 80.3524 474.526 79.6863C475.372 79.2705 476.299 79.0037 477.208 78.7323C478.272 78.4148 479.361 78.1781 480.431 77.8805C481.034 77.7131 481.506 78.069 481.364 78.6875C481.262 79.128 481.071 79.5693 480.828 79.9512C480.314 80.7574 479.699 81.4999 479.197 82.3128C477.673 84.7814 476.156 87.2551 474.691 89.759C473.961 91.0054 473.355 92.3237 472.683 93.6043C472.63 93.706 472.498 93.7666 472.323 93.9129Z" fill="#CEACFF"/>
<path d="M456.982 121.879C457.662 121.515 458.346 121.157 459.023 120.785C462.22 119.029 465.018 116.804 467.122 113.789C468.26 112.157 469.109 110.383 469.701 108.476C470.343 106.408 470.751 104.297 470.615 102.146C470.497 100.279 470.244 98.4213 469.774 96.5821C469.265 94.5882 468.57 92.6775 467.738 90.8158C466.944 89.0386 466.015 87.3219 465.145 85.5788C465.063 85.4161 464.979 85.2549 465.052 85.0023C465.806 86.1978 466.604 87.3686 467.303 88.5954C468.053 89.9124 468.746 91.2657 469.403 92.6322C470.33 94.5598 471.201 96.5117 471.676 98.6164C471.959 99.8667 472.313 101.1 472.613 102.347C472.706 102.732 472.757 103.126 472.767 103.522C472.794 104.612 472.856 105.708 472.783 106.793C472.492 111.091 470.795 114.684 467.316 117.33C465.178 118.956 462.856 120.246 460.296 121.092C459.453 121.37 458.625 121.696 457.782 121.977C457.553 122.054 457.295 122.046 457.051 122.078L456.982 121.879Z" fill="#CEACFF"/>
<path d="M457.111 124.252C457.48 124.129 457.844 123.988 458.218 123.885C460.506 123.259 462.757 122.523 464.921 121.55C466.871 120.673 468.858 119.858 470.731 118.837C474.72 116.662 478.334 113.971 481.471 110.654C484.195 107.773 486.387 104.541 488.019 100.935C488.534 99.7968 488.904 98.5922 489.342 97.4183C489.384 97.3043 489.437 97.1938 489.61 97.109C489.579 97.3863 489.572 97.6692 489.512 97.9402C489.035 100.102 488.322 102.188 487.466 104.228C486.583 106.331 485.514 108.327 484.233 110.218C481.982 113.54 479.263 116.395 475.843 118.509C474.141 119.561 472.355 120.501 470.532 121.327C469.132 121.961 467.624 122.369 466.147 122.818C464.951 123.182 463.73 123.462 462.518 123.773C462.296 123.83 462.067 123.867 461.839 123.903C460.829 124.061 459.82 124.228 458.808 124.365C458.259 124.44 457.703 124.461 457.15 124.507C457.137 124.422 457.124 124.337 457.111 124.252Z" fill="#CEACFF"/>
<path d="M312.69 363.712C310.226 367.861 306.805 371.2 302.708 373.711C301.578 374.403 299.817 374.643 298.513 374.348C295.939 373.767 293.482 372.666 290.977 371.78L291.031 370.523C294.425 368.914 297.846 367.36 301.2 365.671C302.764 364.884 304.316 363.981 305.662 362.874C308.357 360.656 308.189 357.788 305.173 355.893C303.732 354.986 301.98 354.232 300.31 354.088C292.583 353.421 284.849 353.228 277.226 355.159C272.497 356.357 267.658 357.215 263.051 358.766C258.981 360.136 255.13 362.188 251.256 364.088C250.202 364.605 249.322 365.582 248.521 366.488C246.448 368.833 246.241 371.213 248.51 373.345C251.051 375.734 253.859 377.989 256.903 379.66C262.353 382.653 268.141 385.025 273.649 387.923C278.071 390.25 282.389 392.814 286.57 395.552C293.368 400.002 292.037 407.271 287.349 411.393C284.279 414.093 277.069 417.526 271.024 418.311L271.026 418.313L270.915 418.326C270.759 418.345 270.605 418.362 270.451 418.378L260.032 419.56C260.11 419.582 260.188 419.602 260.267 419.626C240.12 421.513 220.007 421.993 199.974 418.703L199.413 417.49C202.103 415.115 204.625 412.503 207.542 410.45C209.392 409.149 211.703 410.081 213.808 410.772C218.539 412.325 223.365 413.606 228.058 415.265C235.294 417.823 242.871 418.264 250.373 419.18C252.228 419.407 254.137 419.183 256.021 419.174C256.163 419.173 256.305 419.173 256.447 419.173L270.153 417.169C271.832 416.596 273.422 416.038 274.962 415.37C276.93 414.519 278.871 413.477 280.587 412.201C284.021 409.647 284.533 405.095 281.714 401.816C280.136 399.98 278.371 398.109 276.306 396.923C271.032 393.895 265.527 391.272 260.144 388.43C254.394 385.394 248.636 382.42 243.87 377.794C240.407 374.435 240.502 369.152 243.662 365.783C247.247 361.962 251.85 360.114 256.566 358.384C266.696 354.667 277.297 353.028 287.916 351.649C294.645 350.775 301.409 350.543 308.086 352.71C313.459 354.453 315.562 358.876 312.69 363.712ZM258.733 332.589C256.712 331.736 255.415 331.387 254.331 330.701C245.45 325.086 235.892 320.85 225.972 317.599C218.537 315.162 210.827 313.529 203.186 311.771C196.456 310.222 189.661 308.943 182.875 307.656C180.482 307.203 177.992 307.255 175.609 306.772C169.245 305.482 162.909 304.053 156.574 302.627C152.224 301.649 147.865 300.692 143.56 299.536C130.103 295.921 117.065 291.427 107.222 280.807C101.836 274.996 98.8953 268.236 97.6627 260.25C96.698 254.002 97.7312 248.085 98.2242 242.064C98.4705 239.051 99.6455 235.974 101 233.22C104.218 226.673 107.767 220.308 111.934 214.269C117.319 206.468 122.462 198.529 125.596 189.41C127.435 184.062 129.558 178.857 130.71 173.267C131.712 168.409 133.646 163.745 134.675 158.89C135.934 152.949 136.871 146.922 137.595 140.891C138.436 133.892 139.196 126.86 139.451 119.822C139.855 108.702 140.109 97.5896 138.688 86.46C137.781 79.3573 137.836 72.1065 137.839 64.9226C137.842 60.7445 142 57.3061 146.127 56.9518C151.625 56.4796 155.904 58.9607 159.61 62.4452C163.362 65.9733 166.946 69.74 170.192 73.7354C178.58 84.058 187.156 94.269 194.872 105.085C202.107 115.225 208.6 125.928 214.922 136.676C219.796 144.962 224.105 153.602 228.283 162.269C231.57 169.086 234.343 176.155 237.214 183.166C239.367 188.424 241.419 193.728 243.316 199.083C244.67 202.906 245.709 206.841 246.859 210.735C248.124 215.013 249.416 219.283 250.581 223.588C251.569 227.241 252.552 230.909 253.255 234.624C254.512 241.271 255.568 247.956 256.685 254.63C257.356 258.639 258.316 262.634 258.569 266.672C259.682 284.41 261.613 302.143 259.414 319.944C259.099 322.495 259.237 325.101 259.125 327.68C259.067 328.999 258.919 330.312 258.733 332.589ZM257.185 341.532C255.607 342.612 255.019 343.299 254.315 343.451C248.251 344.763 243.557 348.42 238.969 352.266C229.193 360.464 219.572 368.856 209.619 376.832C199.545 384.906 188.666 391.869 177.083 397.574C170.55 400.791 163.725 403.488 156.857 405.924C151.015 407.997 144.912 409.332 138.943 411.054C136.61 411.727 134.316 412.539 132.021 413.335C128.21 414.658 124.418 416.034 120.607 417.352C119.849 417.615 119.042 417.846 118.249 417.876C115.376 417.987 112.561 418.205 110.133 420.022C109.916 420.185 109.401 419.95 108.705 419.856C109.99 417.234 112.417 416.183 114.404 414.783C116.942 412.995 119.76 411.608 122.421 409.989C128.826 406.09 132.701 400.813 133.145 392.923C133.637 384.18 130.772 376.716 126.151 369.636C124.968 367.824 123.894 365.94 122.812 364.064C120.088 359.342 119.89 354.085 120.679 349.018C121.794 341.858 125.114 335.822 131.561 331.721C136.816 328.38 141.831 324.626 147.779 322.595C152.207 321.085 156.369 318.74 161.262 318.578C163.369 318.508 165.416 317.274 167.541 317.049C176.886 316.06 186.233 315.604 195.46 318.097C196.372 318.344 197.323 318.538 198.263 318.574C204.581 318.81 210.402 321.099 216.386 322.778C223.717 324.834 230.72 327.694 237.521 331.021C243.472 333.933 249.226 337.248 255.066 340.385C255.548 340.644 256.029 340.906 257.185 341.532ZM310.056 194.853C312.126 199.594 314.101 203.438 315.504 207.48C318.074 214.884 320.52 222.347 322.605 229.898C324.078 235.231 324.857 240.755 325.972 246.187C326.516 248.835 327.405 251.445 327.648 254.117C328.341 261.721 325.631 268.495 321.943 274.927C317.516 282.647 311.71 289.339 305.432 295.537C293.741 307.079 281.766 318.333 269.893 329.69C269.037 330.509 268.05 331.19 266.694 332.281C266.363 330.966 265.928 330.125 265.984 329.317C266.386 323.501 266.864 317.689 267.368 311.881C267.661 308.504 267.967 305.126 268.413 301.767C268.858 298.421 269.488 295.1 270.032 291.767C270.293 290.166 270.506 288.556 270.81 286.963C271.342 284.185 271.921 281.416 272.498 278.648C272.58 278.252 272.805 277.887 272.889 277.492C273.898 272.76 274.726 267.983 275.942 263.306C276.953 259.418 278.372 255.63 279.694 251.828C280.711 248.9 281.849 246.013 282.951 243.116C286.757 233.118 290.985 223.329 296.877 214.334C300.509 208.789 304.023 203.167 307.627 197.604C308.108 196.861 308.803 196.258 310.056 194.853ZM343.662 218.086C342.602 216.109 341.676 214.376 340.746 212.646C336.387 204.541 332.056 196.422 327.646 188.346C326.61 186.448 325.371 184.649 324.107 182.89C322.921 181.242 323.156 179.87 324.617 178.619C328.53 175.27 332.197 171.55 336.448 168.703C341.598 165.254 347.143 162.338 352.718 159.599C356.198 157.89 360.007 156.793 363.744 155.677C368.12 154.372 372.593 153.399 376.995 152.175C379.472 151.487 381.414 152.95 380.829 155.493C380.412 157.304 379.626 159.118 378.625 160.688C376.512 164.002 373.985 167.055 371.922 170.397C365.655 180.546 359.417 190.715 353.394 201.009C350.396 206.133 347.904 211.553 345.142 216.818C344.922 217.236 344.38 217.485 343.662 218.086Z" fill="#CEACFF"/>
<path d="M280.592 333.057C283.389 331.56 286.201 330.088 288.982 328.561C302.126 321.342 313.629 312.195 322.278 299.797C326.957 293.092 330.448 285.795 332.882 277.955C335.521 269.457 337.197 260.776 336.638 251.932C336.154 244.256 335.114 236.621 333.183 229.06C331.091 220.862 328.231 213.007 324.812 205.354C321.549 198.048 317.728 190.99 314.151 183.824C313.816 183.155 313.468 182.492 313.771 181.454C316.871 186.369 320.148 191.182 323.022 196.225C326.108 201.64 328.954 207.203 331.656 212.821C335.467 220.746 339.049 228.77 341.003 237.423C342.164 242.563 343.621 247.635 344.853 252.76C345.234 254.344 345.447 255.963 345.488 257.591C345.597 262.073 345.854 266.578 345.552 271.039C344.357 288.707 337.381 303.478 323.076 314.358C314.289 321.04 304.741 326.344 294.218 329.822C290.75 330.967 287.347 332.306 283.882 333.462C282.939 333.777 281.881 333.747 280.876 333.875L280.592 333.057Z" fill="#CEACFF"/>
<path d="M281.122 342.815C282.639 342.308 284.135 341.728 285.676 341.306C295.08 338.73 304.333 335.706 313.232 331.704C321.247 328.1 329.415 324.749 337.116 320.551C353.516 311.611 368.372 300.547 381.268 286.911C392.469 275.066 401.48 261.778 408.188 246.957C410.307 242.276 411.827 237.324 413.627 232.498C413.802 232.029 414.017 231.575 414.731 231.226C414.602 232.366 414.575 233.529 414.329 234.643C412.364 243.531 409.437 252.107 405.916 260.493C402.287 269.138 397.889 277.345 392.623 285.118C383.37 298.773 372.193 310.515 358.134 319.204C351.136 323.529 343.794 327.395 336.3 330.789C330.543 333.397 324.345 335.071 318.269 336.92C313.354 338.416 308.333 339.564 303.354 340.844C302.437 341.08 301.496 341.231 300.56 341.378C296.408 342.027 292.261 342.714 288.098 343.279C285.842 343.586 283.556 343.674 281.283 343.861C281.23 343.512 281.176 343.164 281.122 342.815Z" fill="#CEACFF"/>
<path d="M283.46 418L283.844 415.716L290.884 409.776C291.56 409.19 292.128 408.67 292.588 408.216C293.054 407.756 293.42 407.315 293.688 406.895C293.955 406.469 294.128 406.014 294.207 405.531C294.298 404.98 294.253 404.506 294.071 404.108C293.889 403.71 293.599 403.406 293.202 403.196C292.81 402.98 292.335 402.872 291.778 402.872C291.205 402.872 290.679 402.991 290.202 403.23C289.724 403.463 289.327 403.798 289.009 404.236C288.696 404.668 288.491 405.179 288.395 405.77H285.386C285.568 404.662 285.983 403.699 286.631 402.881C287.278 402.062 288.088 401.429 289.06 400.98C290.031 400.531 291.094 400.307 292.247 400.307C293.418 400.307 294.406 400.526 295.213 400.963C296.026 401.401 296.611 402 296.969 402.761C297.332 403.523 297.432 404.392 297.267 405.369C297.153 406.023 296.918 406.665 296.56 407.295C296.207 407.92 295.653 408.619 294.898 409.392C294.142 410.159 293.108 411.088 291.795 412.179L288.293 415.239L288.267 415.358H295.861L295.426 418H283.46ZM304.776 418.332C303.366 418.332 302.219 417.977 301.332 417.267C300.446 416.551 299.847 415.52 299.534 414.173C299.227 412.821 299.233 411.193 299.551 409.29C299.864 407.386 300.401 405.767 301.162 404.432C301.923 403.091 302.864 402.068 303.983 401.364C305.102 400.659 306.358 400.307 307.75 400.307C309.148 400.307 310.29 400.659 311.176 401.364C312.068 402.068 312.673 403.091 312.991 404.432C313.31 405.767 313.31 407.386 312.991 409.29C312.673 411.193 312.134 412.821 311.372 414.173C310.616 415.52 309.676 416.551 308.551 417.267C307.432 417.977 306.173 418.332 304.776 418.332ZM305.219 415.665C306.31 415.665 307.259 415.125 308.065 414.045C308.872 412.966 309.452 411.381 309.804 409.29C310.037 407.903 310.085 406.739 309.949 405.795C309.818 404.852 309.528 404.142 309.08 403.665C308.631 403.182 308.045 402.94 307.324 402.94C306.239 402.94 305.29 403.48 304.477 404.56C303.665 405.634 303.085 407.21 302.739 409.29C302.506 410.687 302.455 411.861 302.585 412.81C302.716 413.753 303.006 414.466 303.455 414.949C303.903 415.426 304.491 415.665 305.219 415.665ZM324.371 400.545L321.474 418H318.312L320.698 403.622H320.596L316.079 406.23L316.556 403.332L321.363 400.545H324.371ZM334.769 400.307C335.627 400.312 336.437 400.463 337.198 400.759C337.965 401.054 338.619 401.534 339.158 402.199C339.698 402.858 340.067 403.739 340.266 404.841C340.465 405.937 340.428 407.295 340.156 408.915C339.911 410.392 339.536 411.71 339.031 412.869C338.531 414.023 337.923 415 337.207 415.801C336.496 416.597 335.695 417.202 334.803 417.616C333.911 418.031 332.948 418.239 331.914 418.239C330.817 418.239 329.871 418.026 329.076 417.599C328.281 417.168 327.673 416.577 327.252 415.827C326.837 415.077 326.644 414.222 326.673 413.261H329.724C329.741 413.972 329.951 414.523 330.354 414.915C330.758 415.307 331.332 415.503 332.076 415.503C333.298 415.503 334.343 414.974 335.212 413.918C336.087 412.861 336.69 411.372 337.019 409.452L336.883 409.631C336.525 410.131 336.102 410.554 335.613 410.901C335.124 411.247 334.593 411.511 334.019 411.693C333.451 411.869 332.86 411.957 332.246 411.957C331.201 411.957 330.3 411.705 329.545 411.199C328.789 410.693 328.241 410 327.9 409.119C327.559 408.239 327.482 407.236 327.67 406.111C327.857 404.991 328.278 403.994 328.931 403.119C329.59 402.239 330.42 401.548 331.42 401.048C332.425 400.543 333.542 400.295 334.769 400.307ZM334.658 402.864C334.022 402.864 333.42 403.02 332.852 403.332C332.289 403.645 331.812 404.068 331.42 404.602C331.033 405.136 330.789 405.733 330.687 406.392C330.596 406.983 330.641 407.517 330.823 407.994C331.005 408.472 331.3 408.852 331.71 409.136C332.124 409.415 332.627 409.554 333.218 409.554C333.701 409.554 334.164 409.46 334.607 409.273C335.056 409.085 335.462 408.83 335.826 408.506C336.195 408.176 336.502 407.798 336.746 407.372C336.991 406.946 337.15 406.494 337.224 406.017C337.32 405.437 337.275 404.909 337.087 404.432C336.906 403.955 336.607 403.574 336.192 403.29C335.778 403.006 335.266 402.864 334.658 402.864ZM342.902 418.188C342.379 418.188 341.947 418.006 341.607 417.642C341.266 417.278 341.107 416.835 341.129 416.312C341.152 415.801 341.359 415.366 341.751 415.009C342.143 414.651 342.595 414.472 343.107 414.472C343.612 414.472 344.041 414.653 344.393 415.017C344.751 415.381 344.913 415.812 344.879 416.312C344.857 416.665 344.749 416.983 344.555 417.267C344.368 417.551 344.129 417.776 343.839 417.94C343.55 418.105 343.237 418.188 342.902 418.188ZM353.479 418.332C352.07 418.332 350.922 417.977 350.036 417.267C349.149 416.551 348.55 415.52 348.237 414.173C347.93 412.821 347.936 411.193 348.254 409.29C348.567 407.386 349.104 405.767 349.865 404.432C350.626 403.091 351.567 402.068 352.686 401.364C353.805 400.659 355.061 400.307 356.453 400.307C357.851 400.307 358.993 400.659 359.879 401.364C360.771 402.068 361.376 403.091 361.695 404.432C362.013 405.767 362.013 407.386 361.695 409.29C361.376 411.193 360.837 412.821 360.075 414.173C359.32 415.52 358.379 416.551 357.254 417.267C356.135 417.977 354.876 418.332 353.479 418.332ZM353.922 415.665C355.013 415.665 355.962 415.125 356.768 414.045C357.575 412.966 358.155 411.381 358.507 409.29C358.74 407.903 358.788 406.739 358.652 405.795C358.521 404.852 358.232 404.142 357.783 403.665C357.334 403.182 356.749 402.94 356.027 402.94C354.942 402.94 353.993 403.48 353.18 404.56C352.368 405.634 351.788 407.21 351.442 409.29C351.209 410.687 351.158 411.861 351.288 412.81C351.419 413.753 351.709 414.466 352.158 414.949C352.607 415.426 353.195 415.665 353.922 415.665ZM371.941 400.307C372.799 400.312 373.609 400.463 374.37 400.759C375.137 401.054 375.79 401.534 376.33 402.199C376.87 402.858 377.239 403.739 377.438 404.841C377.637 405.937 377.6 407.295 377.327 408.915C377.083 410.392 376.708 411.71 376.202 412.869C375.702 414.023 375.094 415 374.379 415.801C373.668 416.597 372.867 417.202 371.975 417.616C371.083 418.031 370.12 418.239 369.086 418.239C367.989 418.239 367.043 418.026 366.248 417.599C365.452 417.168 364.844 416.577 364.424 415.827C364.009 415.077 363.816 414.222 363.844 413.261H366.896C366.913 413.972 367.123 414.523 367.526 414.915C367.93 415.307 368.504 415.503 369.248 415.503C370.469 415.503 371.515 414.974 372.384 413.918C373.259 412.861 373.862 411.372 374.191 409.452L374.055 409.631C373.697 410.131 373.273 410.554 372.785 410.901C372.296 411.247 371.765 411.511 371.191 411.693C370.623 411.869 370.032 411.957 369.418 411.957C368.373 411.957 367.472 411.705 366.717 411.199C365.961 410.693 365.413 410 365.072 409.119C364.731 408.239 364.654 407.236 364.842 406.111C365.029 404.991 365.45 403.994 366.103 403.119C366.762 402.239 367.592 401.548 368.592 401.048C369.597 400.543 370.714 400.295 371.941 400.307ZM371.83 402.864C371.194 402.864 370.592 403.02 370.023 403.332C369.461 403.645 368.984 404.068 368.592 404.602C368.205 405.136 367.961 405.733 367.859 406.392C367.768 406.983 367.813 407.517 367.995 407.994C368.177 408.472 368.472 408.852 368.881 409.136C369.296 409.415 369.799 409.554 370.39 409.554C370.873 409.554 371.336 409.46 371.779 409.273C372.228 409.085 372.634 408.83 372.998 408.506C373.367 408.176 373.674 407.798 373.918 407.372C374.163 406.946 374.322 406.494 374.396 406.017C374.492 405.437 374.447 404.909 374.259 404.432C374.077 403.955 373.779 403.574 373.364 403.29C372.95 403.006 372.438 402.864 371.83 402.864ZM380.074 418.188C379.551 418.188 379.119 418.006 378.778 417.642C378.438 417.278 378.278 416.835 378.301 416.312C378.324 415.801 378.531 415.366 378.923 415.009C379.315 414.651 379.767 414.472 380.278 414.472C380.784 414.472 381.213 414.653 381.565 415.017C381.923 415.381 382.085 415.812 382.051 416.312C382.028 416.665 381.92 416.983 381.727 417.267C381.54 417.551 381.301 417.776 381.011 417.94C380.722 418.105 380.409 418.188 380.074 418.188ZM390.651 418.332C389.241 418.332 388.094 417.977 387.207 417.267C386.321 416.551 385.722 415.52 385.409 414.173C385.102 412.821 385.108 411.193 385.426 409.29C385.739 407.386 386.276 405.767 387.037 404.432C387.798 403.091 388.739 402.068 389.858 401.364C390.977 400.659 392.233 400.307 393.625 400.307C395.023 400.307 396.165 400.659 397.051 401.364C397.943 402.068 398.548 403.091 398.866 404.432C399.185 405.767 399.185 407.386 398.866 409.29C398.548 411.193 398.009 412.821 397.247 414.173C396.491 415.52 395.551 416.551 394.426 417.267C393.307 417.977 392.048 418.332 390.651 418.332ZM391.094 415.665C392.185 415.665 393.134 415.125 393.94 414.045C394.747 412.966 395.327 411.381 395.679 409.29C395.912 407.903 395.96 406.739 395.824 405.795C395.693 404.852 395.403 404.142 394.955 403.665C394.506 403.182 393.92 402.94 393.199 402.94C392.114 402.94 391.165 403.48 390.352 404.56C389.54 405.634 388.96 407.21 388.614 409.29C388.381 410.687 388.33 411.861 388.46 412.81C388.591 413.753 388.881 414.466 389.33 414.949C389.778 415.426 390.366 415.665 391.094 415.665ZM409.113 400.307C409.971 400.312 410.781 400.463 411.542 400.759C412.309 401.054 412.962 401.534 413.502 402.199C414.042 402.858 414.411 403.739 414.61 404.841C414.809 405.937 414.772 407.295 414.499 408.915C414.255 410.392 413.88 411.71 413.374 412.869C412.874 414.023 412.266 415 411.55 415.801C410.84 416.597 410.039 417.202 409.147 417.616C408.255 418.031 407.292 418.239 406.258 418.239C405.161 418.239 404.215 418.026 403.42 417.599C402.624 417.168 402.016 416.577 401.596 415.827C401.181 415.077 400.988 414.222 401.016 413.261H404.067C404.085 413.972 404.295 414.523 404.698 414.915C405.102 415.307 405.675 415.503 406.42 415.503C407.641 415.503 408.687 414.974 409.556 413.918C410.431 412.861 411.033 411.372 411.363 409.452L411.227 409.631C410.869 410.131 410.445 410.554 409.957 410.901C409.468 411.247 408.937 411.511 408.363 411.693C407.795 411.869 407.204 411.957 406.59 411.957C405.545 411.957 404.644 411.705 403.888 411.199C403.133 410.693 402.585 410 402.244 409.119C401.903 408.239 401.826 407.236 402.013 406.111C402.201 404.991 402.621 403.994 403.275 403.119C403.934 402.239 404.763 401.548 405.763 401.048C406.769 400.543 407.886 400.295 409.113 400.307ZM409.002 402.864C408.366 402.864 407.763 403.02 407.195 403.332C406.633 403.645 406.156 404.068 405.763 404.602C405.377 405.136 405.133 405.733 405.031 406.392C404.94 406.983 404.985 407.517 405.167 407.994C405.349 408.472 405.644 408.852 406.053 409.136C406.468 409.415 406.971 409.554 407.562 409.554C408.045 409.554 408.508 409.46 408.951 409.273C409.4 409.085 409.806 408.83 410.17 408.506C410.539 408.176 410.846 407.798 411.09 407.372C411.335 406.946 411.494 406.494 411.567 406.017C411.664 405.437 411.619 404.909 411.431 404.432C411.249 403.955 410.951 403.574 410.536 403.29C410.121 403.006 409.61 402.864 409.002 402.864Z" fill="url(#paint0_linear_5_4937)"/>
<path d="M199.358 315.909H204.585L201.176 336.435C200.873 338.3 200.229 339.905 199.244 341.25C198.269 342.585 197.028 343.613 195.523 344.332C194.027 345.043 192.331 345.398 190.438 345.398C188.723 345.398 187.227 345.095 185.949 344.489C184.67 343.873 183.728 342.964 183.122 341.761C182.516 340.549 182.36 339.053 182.653 337.273H187.824C187.71 338.078 187.767 338.764 187.994 339.332C188.231 339.901 188.61 340.331 189.131 340.625C189.661 340.919 190.314 341.065 191.091 341.065C191.953 341.065 192.715 340.881 193.378 340.511C194.05 340.142 194.609 339.602 195.054 338.892C195.499 338.182 195.812 337.315 195.991 336.293L199.358 315.909ZM214.82 345.426C212.67 345.426 210.88 344.953 209.45 344.006C208.03 343.059 207.031 341.728 206.453 340.014C205.875 338.3 205.771 336.312 206.141 334.048C206.51 331.813 207.249 329.858 208.357 328.182C209.474 326.506 210.88 325.208 212.575 324.29C214.28 323.362 216.188 322.898 218.3 322.898C220.449 322.898 222.234 323.376 223.655 324.332C225.075 325.279 226.074 326.61 226.652 328.324C227.239 330.038 227.348 332.036 226.979 334.318C226.619 336.544 225.875 338.49 224.749 340.156C223.631 341.823 222.225 343.12 220.53 344.048C218.835 344.967 216.931 345.426 214.82 345.426ZM215.246 341.307C216.439 341.307 217.485 340.985 218.385 340.341C219.294 339.687 220.037 338.812 220.615 337.713C221.202 336.605 221.609 335.374 221.837 334.02C222.045 332.713 222.05 331.529 221.851 330.469C221.652 329.399 221.226 328.551 220.572 327.926C219.929 327.292 219.034 326.974 217.888 326.974C216.695 326.974 215.639 327.306 214.72 327.969C213.811 328.622 213.068 329.503 212.49 330.611C211.912 331.709 211.515 332.936 211.297 334.29C211.079 335.597 211.07 336.78 211.268 337.841C211.467 338.902 211.893 339.744 212.547 340.369C213.2 340.994 214.1 341.307 215.246 341.307ZM229.582 345L233.218 323.182H238.36L234.724 345H229.582ZM236.542 320.057C235.718 320.057 235.036 319.782 234.496 319.233C233.957 318.684 233.72 318.026 233.786 317.259C233.853 316.491 234.198 315.833 234.823 315.284C235.458 314.735 236.182 314.46 236.996 314.46C237.82 314.46 238.497 314.735 239.028 315.284C239.567 315.833 239.804 316.491 239.738 317.259C239.681 318.026 239.335 318.684 238.701 319.233C238.076 319.782 237.356 320.057 236.542 320.057ZM249.614 345.426C247.426 345.426 245.617 344.972 244.188 344.062C242.758 343.144 241.754 341.847 241.176 340.17C240.608 338.485 240.513 336.501 240.892 334.219C241.261 331.974 242.014 330.005 243.151 328.31C244.287 326.605 245.707 325.279 247.412 324.332C249.126 323.376 251.02 322.898 253.094 322.898C254.438 322.898 255.674 323.116 256.801 323.551C257.928 323.977 258.88 324.64 259.656 325.54C260.433 326.439 260.968 327.585 261.261 328.977C261.555 330.36 261.541 332.008 261.219 333.92L260.977 335.497H243.08L243.634 332.031H256.588C256.759 331.046 256.702 330.17 256.418 329.403C256.134 328.627 255.66 328.016 254.997 327.571C254.334 327.126 253.506 326.903 252.511 326.903C251.498 326.903 250.551 327.164 249.67 327.685C248.799 328.196 248.065 328.859 247.469 329.673C246.872 330.488 246.493 331.345 246.332 332.244L245.75 335.568C245.542 336.932 245.589 338.045 245.892 338.906C246.195 339.768 246.725 340.402 247.483 340.81C248.241 341.217 249.197 341.42 250.352 341.42C251.11 341.42 251.811 341.316 252.455 341.108C253.098 340.9 253.671 340.587 254.173 340.17C254.685 339.744 255.111 339.223 255.452 338.608L260.153 339.148C259.633 340.417 258.87 341.525 257.866 342.472C256.863 343.409 255.66 344.138 254.259 344.659C252.866 345.17 251.318 345.426 249.614 345.426ZM263.989 345L268.818 315.909H279.727C281.962 315.909 283.771 316.326 285.153 317.159C286.536 317.983 287.497 319.124 288.037 320.582C288.577 322.031 288.69 323.684 288.378 325.54C288.075 327.405 287.407 329.062 286.375 330.511C285.352 331.96 284.003 333.101 282.327 333.935C280.651 334.759 278.69 335.17 276.446 335.17H269.216L269.94 330.838H276.46C277.767 330.838 278.875 330.611 279.784 330.156C280.703 329.702 281.427 329.077 281.957 328.281C282.488 327.486 282.838 326.572 283.009 325.54C283.17 324.508 283.117 323.598 282.852 322.812C282.587 322.027 282.071 321.416 281.304 320.98C280.546 320.535 279.509 320.312 278.193 320.312H273.364L269.259 345H263.989ZM289.464 345L293.101 323.182H298.243L294.607 345H289.464ZM296.425 320.057C295.601 320.057 294.919 319.782 294.379 319.233C293.839 318.684 293.603 318.026 293.669 317.259C293.735 316.491 294.081 315.833 294.706 315.284C295.34 314.735 296.065 314.46 296.879 314.46C297.703 314.46 298.38 314.735 298.911 315.284C299.45 315.833 299.687 316.491 299.621 317.259C299.564 318.026 299.218 318.684 298.584 319.233C297.959 319.782 297.239 320.057 296.425 320.057ZM307.167 332.216L305.065 345H299.908L303.545 323.182H308.474L307.849 326.889H308.119C308.8 325.668 309.757 324.697 310.988 323.977C312.219 323.258 313.654 322.898 315.292 322.898C316.779 322.898 318.029 323.22 319.042 323.864C320.055 324.498 320.775 325.431 321.201 326.662C321.627 327.884 321.693 329.366 321.4 331.108L319.07 345H313.928L316.102 331.903C316.348 330.455 316.163 329.318 315.548 328.494C314.942 327.661 313.966 327.244 312.621 327.244C311.722 327.244 310.893 327.443 310.136 327.841C309.378 328.229 308.739 328.793 308.218 329.531C307.707 330.27 307.356 331.165 307.167 332.216ZM330.079 338.153L331.087 331.946H331.911L341.244 323.182H347.252L335.832 333.92H334.781L330.079 338.153ZM324.269 345L329.099 315.909H334.241L329.411 345H324.269ZM337.962 345L332.508 335.071L336.585 331.449L344.113 345H337.962Z" fill="url(#paint1_linear_5_4937)"/>
</g>
<defs>
<linearGradient id="paint0_linear_5_4937" x1="283" y1="409.5" x2="416" y2="409.5" gradientUnits="userSpaceOnUse">
<stop stop-color="#FF889A"/>
<stop offset="1" stop-color="#CEACFF"/>
</linearGradient>
<linearGradient id="paint1_linear_5_4937" x1="182" y1="330" x2="347" y2="330" gradientUnits="userSpaceOnUse">
<stop stop-color="white"/>
<stop offset="1" stop-color="#FF92A2"/>
</linearGradient>
<clipPath id="clip0_5_4937">
<rect width="512" height="512" fill="white"/>
</clipPath>
</defs>
</svg>
