<svg width="512" height="512" viewBox="0 0 512 512" fill="none" xmlns="http://www.w3.org/2000/svg">
<path d="M471.5 67H246.5C239.591 67 234 71.824 234 77.7858V207.214C234 213.176 239.591 218 246.5 218H471.5C478.409 218 484 213.176 484 207.214V77.7858C484 71.8243 478.409 67 471.5 67ZM353.238 185.643H279.41C243.253 185.643 261.368 142.5 316.52 142.5C302.713 142.5 291.519 132.842 291.519 120.929C291.519 109.016 298.026 99.3574 316.52 99.3574C330.326 99.3574 341.519 109.016 341.519 120.929C341.519 132.842 330.326 142.5 316.52 142.5C370.035 142.5 387.833 185.643 353.238 185.643ZM452.75 185.643H402.75C399.296 185.643 396.5 183.231 396.5 180.25C396.5 177.269 399.296 174.857 402.75 174.857H452.75C456.192 174.857 459 177.269 459 180.25C459 183.231 456.192 185.643 452.75 185.643ZM452.75 153.286H402.75C399.296 153.286 396.5 150.874 396.5 147.893C396.5 144.912 399.296 142.5 402.75 142.5H452.75C456.192 142.5 459 144.912 459 147.893C459 150.874 456.192 153.286 452.75 153.286ZM452.75 120.929H402.75C399.296 120.929 396.5 118.517 396.5 115.536C396.5 112.555 399.296 110.143 402.75 110.143H452.75C456.192 110.143 459 112.555 459 115.536C459 118.517 456.192 120.929 452.75 120.929Z" fill="black"/>
<path d="M125.333 292C79.2917 292 42 329.292 42 375.333C41.9906 392.827 47.4901 409.88 57.7185 424.072C67.9468 438.265 82.3846 448.876 98.9833 454.4C103.15 455.125 104.708 452.625 104.708 450.433C104.708 448.458 104.6 441.9 104.6 434.917C83.6667 438.775 78.25 429.817 76.5833 425.125C75.6417 422.725 71.5833 415.333 68.0417 413.35C65.125 411.792 60.9583 407.933 67.9333 407.833C74.5 407.725 79.1833 413.875 80.75 416.375C88.25 428.975 100.233 425.433 105.017 423.25C105.75 417.833 107.933 414.192 110.333 412.108C91.7917 410.025 72.4167 402.833 72.4167 370.958C72.4167 361.892 75.6417 354.4 80.9583 348.558C80.125 346.475 77.2083 337.933 81.7917 326.475C81.7917 326.475 88.7667 324.292 104.708 335.025C111.492 333.142 118.501 332.195 125.542 332.208C132.625 332.208 139.708 333.142 146.375 335.017C162.308 324.183 169.292 326.483 169.292 326.483C173.875 337.942 170.958 346.483 170.125 348.567C175.433 354.4 178.667 361.792 178.667 370.958C178.667 402.942 159.192 410.025 140.65 412.108C143.667 414.708 146.275 419.708 146.275 427.525C146.275 438.667 146.167 447.625 146.167 450.442C146.167 452.625 147.733 455.225 151.9 454.392C168.442 448.807 182.816 438.175 192.999 423.993C203.182 409.811 208.662 392.793 208.667 375.333C208.667 329.292 171.375 292 125.333 292Z" fill="black"/>
<path d="M251.037 380.402C288.265 370.918 319.837 355.817 342.343 336.73C365.501 317.091 377.742 294.245 377.742 270.662C377.742 268.253 377.608 265.832 377.352 263.422L390.37 270.791C395.157 273.501 402.841 273.456 407.532 270.691C412.223 267.925 412.145 263.487 407.358 260.777L375.508 242.748C368.944 239.031 358.37 239.092 351.935 242.885L320.722 261.284C318.408 262.648 317.254 264.419 317.254 266.19C317.254 268.008 318.471 269.825 320.896 271.197C325.684 273.907 333.367 273.862 338.058 271.097L352.892 262.353C353.276 265.117 353.468 267.889 353.469 270.662C353.469 291.418 342.685 311.534 322.282 328.837C302.334 345.754 274.311 359.149 241.242 367.573C236.702 368.73 234 371.298 234 373.992C234 374.936 234.333 375.897 235.035 376.817C237.74 380.359 244.904 381.964 251.037 380.402Z" fill="#3E3A39"/>
</svg>
