<svg width="512" height="512" viewBox="0 0 512 512" fill="none" xmlns="http://www.w3.org/2000/svg">
<path d="M159.272 157H36.627C29.111 157 23 163.072 23 170.535V309.352C23 316.815 29.113 322.887 36.627 322.887H159.273C166.789 322.887 172.9 316.817 172.902 309.352V170.535C172.901 163.072 166.788 157 159.272 157ZM107.808 198.893C112.769 198.893 116.713 202.78 116.713 207.663C116.713 212.546 112.769 216.413 107.808 216.413C102.847 216.413 98.902 212.526 98.902 207.663C98.882 202.877 102.925 198.893 107.808 198.893ZM142.534 304.01H40.815C38.237 304.01 36.225 302.018 36.225 299.498C36.225 296.977 38.237 294.984 40.815 294.984H142.63C145.208 294.984 147.22 296.976 147.22 299.498C147.221 302.018 145.111 304.01 142.534 304.01ZM36.225 277.467C36.225 274.946 38.237 272.955 40.815 272.955H98.881C101.459 272.955 103.472 274.945 103.472 277.467C103.472 279.987 101.441 281.979 98.881 281.979H40.815C38.237 281.979 36.225 279.987 36.225 277.467ZM147.943 260.846C147.202 262.194 145.638 263.112 143.9 263.112H40.815C39.9713 263.103 39.1447 262.873 38.4178 262.445C37.6909 262.017 37.0892 261.405 36.673 260.671C36.2786 259.936 36.1039 259.104 36.1696 258.272C36.2354 257.441 36.5389 256.646 37.044 255.983L69.018 212.897C69.3942 212.383 69.8769 211.957 70.4332 211.646C70.9894 211.336 71.6061 211.15 72.241 211.1C72.8681 211.021 73.5048 211.078 74.1081 211.267C74.7113 211.455 75.2668 211.772 75.737 212.194L108.822 240.456L120.503 227.722C121.46 226.726 122.809 226.179 124.175 226.277C124.859 226.328 125.524 226.523 126.126 226.85C126.729 227.176 127.255 227.627 127.671 228.172L147.671 256.161C148.687 257.506 148.784 259.303 147.943 260.846ZM164.682 204.703C164.682 205.492 164.529 206.256 164.224 206.978C163.93 207.671 163.505 208.3 162.971 208.83C162.441 209.364 161.811 209.788 161.117 210.079C160.399 210.384 159.627 210.54 158.847 210.538H158.333L152.139 206.982L145.432 210.834L138.726 206.982L132.532 210.538H132.019C130.871 210.54 129.748 210.203 128.792 209.568C127.835 208.934 127.088 208.03 126.643 206.972C126.338 206.253 126.182 205.479 126.183 204.698V170.169C126.182 169.402 126.332 168.642 126.626 167.934C126.92 167.225 127.351 166.582 127.895 166.041C128.426 165.508 129.055 165.083 129.749 164.792C130.466 164.487 131.237 164.331 132.016 164.333H158.848C159.615 164.332 160.374 164.483 161.082 164.777C161.791 165.071 162.434 165.502 162.975 166.045C163.518 166.586 163.948 167.23 164.241 167.938C164.534 168.647 164.684 169.406 164.682 170.173V204.703Z" fill="#4D4D4D"/>
<path d="M397.251 199C402.462 199 406.605 203.438 406.605 209.01C406.605 214.583 402.462 219 397.251 219C392.042 219 387.897 214.562 387.897 209.01C387.876 203.548 392.124 199 397.251 199ZM433.724 319H326.892C324.185 319 322.072 316.726 322.072 313.85C322.072 310.972 324.185 308.698 326.892 308.698H433.825C436.531 308.698 438.646 310.972 438.646 313.85C438.646 316.728 436.432 319 433.724 319ZM322.072 288.7C322.072 285.824 324.185 283.55 326.892 283.55H387.876C390.586 283.55 392.699 285.824 392.699 288.7C392.699 291.576 390.565 293.852 387.876 293.852H326.892C324.185 293.85 322.072 291.576 322.072 288.7ZM439.407 269.724C438.627 271.262 436.987 272.312 435.159 272.312H326.892C326.006 272.302 325.138 272.039 324.375 271.55C323.611 271.061 322.98 270.362 322.543 269.524C322.129 268.686 321.945 267.736 322.014 266.787C322.083 265.838 322.402 264.931 322.933 264.174L356.513 214.988C356.908 214.401 357.415 213.914 357.999 213.56C358.583 213.206 359.231 212.993 359.898 212.936C360.556 212.846 361.225 212.911 361.858 213.127C362.492 213.342 363.076 213.703 363.57 214.185L398.318 246.448L410.584 231.91C411.078 231.346 411.679 230.906 412.345 230.621C413.012 230.336 413.727 230.213 414.442 230.26C415.898 230.373 417.231 231.174 418.113 232.422L439.119 264.374C440.186 265.912 440.286 267.964 439.407 269.724Z" fill="#4D4D4D"/>
<path d="M459.404 419H302.602C291.772 419 283 409.238 283 397.2V113.8C283 101.76 291.772 92 302.602 92H459.402C470.228 92 479 101.76 479 113.8V397.203C479.005 409.24 470.229 419 459.404 419ZM381.003 397.2C388.221 397.2 394.068 390.693 394.068 382.67C394.068 374.644 388.218 368.137 381.003 368.137C373.789 368.137 367.935 374.644 367.935 382.67C367.935 390.693 373.785 397.2 381.003 397.2ZM397.335 110.168C397.335 108.161 395.87 106.533 394.068 106.533H361.403C359.601 106.533 358.134 108.161 358.134 110.168V113.799C358.134 115.805 359.601 117.433 361.403 117.433H394.068C395.87 117.433 397.335 115.805 397.335 113.799V110.168ZM459.404 128.333H302.602V353.603H459.402V128.333H459.404Z" fill="#4D4D4D"/>
<path d="M233.472 282.307L274.243 258.197L233.472 234.087C234.418 238.17 235.119 242.354 235.567 246.587L185.27 243.264L189.408 258.207L185.961 271.788L235.587 269.616C235.13 273.92 234.428 278.164 233.472 282.307Z" fill="#4C4C4C"/>
</svg>
